<?xml version="1.0" encoding="UTF-8" standalone="no"?>
<svg width="17px" height="20px" viewBox="0 0 17 20" version="1.1" xmlns="http://www.w3.org/2000/svg" xmlns:xlink="http://www.w3.org/1999/xlink">
    <!-- Generator: sketchtool 41.2 (35397) - http://www.bohemiancoding.com/sketch -->
    <title>delete</title>
    <desc>Created with sketchtool.</desc>
    <defs></defs>
    <g id="Guide-previews" stroke="none" stroke-width="1" fill="none" fill-rule="evenodd">
        <g id="Icons" transform="translate(-133.000000, -112.000000)" fill="#227FBB">
            <path d="M148.833333,117 L147.925,117 L146.420833,130.431667 C146.321667,131.310833 145.551667,132 144.666667,132 L138,132 C137.114167,132 136.345,131.31 136.2475,130.43 L134.766667,117 L133.833333,117 C133.3725,117 133,116.626667 133,116.166667 C133,115.706667 133.3725,115.333333 133.833333,115.333333 L138,115.333333 L138,114.5 C138,113.121667 139.121667,112 140.5,112 L142.166667,112 C143.545,112 144.666667,113.121667 144.666667,114.5 L144.666667,115.333333 L148.833333,115.333333 C149.294167,115.333333 149.666667,115.706667 149.666667,116.166667 C149.666667,116.626667 149.294167,117 148.833333,117 Z M143,114.5 C143,114.040833 142.626667,113.666667 142.166667,113.666667 L140.5,113.666667 C140.04,113.666667 139.666667,114.040833 139.666667,114.5 L139.666667,115.333333 L143,115.333333 L143,114.5 Z M136.443333,117 L137.904167,130.246667 C137.9075,130.279167 137.966667,130.333333 138,130.333333 L144.666667,130.333333 C144.7,130.333333 144.760833,130.279167 144.764167,130.245 L146.2475,117 L136.443333,117 Z" id="delete"></path>
        </g>
    </g>
</svg>