<?xml version="1.0" encoding="UTF-8" standalone="no"?>
<svg width="16px" height="20px" viewBox="0 0 16 20" version="1.1" xmlns="http://www.w3.org/2000/svg" xmlns:xlink="http://www.w3.org/1999/xlink">
    <!-- Generator: Sketch 41.2 (35397) - http://www.bohemiancoding.com/sketch -->
    <title>document</title>
    <desc>Created with Sketch.</desc>
    <defs></defs>
    <g id="Guide-previews" stroke="none" stroke-width="1" fill="none" fill-rule="evenodd">
        <g id="Icons" transform="translate(-97.000000, -112.000000)" fill="#227FBB">
            <g id="document" transform="translate(97.000000, 112.000000)">
                <path d="M11.955,16.6666667 L10.265,16.6666667 C10.1549994,16.6666667 10.0658337,16.6400003 9.9975,16.5866667 C9.92916632,16.5333331 9.8750002,16.4700004 9.835,16.3966667 L8.375,13.8466667 C8.3483332,13.9200004 8.3183335,13.9833331 8.285,14.0366667 L6.925,16.3966667 C6.8783331,16.4633337 6.82333365,16.5249997 6.76,16.5816667 C6.69666635,16.6383336 6.6150005,16.6666667 6.515,16.6666667 L4.935,16.6666667 L7.28,12.9166667 L5.025,9.38166667 L6.715,9.38166667 C6.82500055,9.38166667 6.90583307,9.39583319 6.9575,9.42416667 C7.00916692,9.45250014 7.0549998,9.49999967 7.095,9.56666667 L8.545,12.0216667 C8.56166675,11.9783331 8.58083322,11.9366669 8.6025,11.8966667 C8.62416677,11.8566665 8.6483332,11.8150002 8.675,11.7716667 L9.945,9.59166667 C9.9916669,9.51833297 10.0408331,9.46500017 10.0925,9.43166667 C10.1441669,9.39833317 10.2083329,9.38166667 10.285,9.38166667 L11.905,9.38166667 L9.62,12.8466667 L11.955,16.6666667 Z" id="X"></path>
                <path d="M15.8341667,6.65583333 C15.8341667,6.685 15.82,6.71 15.8175,6.73833333 L15.8175,18.2866667 C15.8175,19.2033333 15.0708333,19.9483333 14.1525,19.9483333 L2.4975,19.9483333 C1.57916667,19.9483333 0.8325,19.2033333 0.8325,18.2866667 L0.8325,1.67 C0.8325,0.754166667 1.57916667,0.00833333333 2.4975,0.00833333333 L9.1575,0.00833333333 C9.195,0.00833333333 9.22666667,0.025 9.26333333,0.03 C9.30083333,0.035 9.33416667,0.0416666667 9.37083333,0.0516666667 C9.5125,0.09 9.645,0.151666667 9.74583333,0.2525 L15.4825,5.97833333 C15.5091667,5.99666667 15.5216667,6.02833333 15.5458333,6.05 C15.5708333,6.0725 15.5891667,6.09833333 15.6108333,6.12416667 C15.7391667,6.27 15.8341667,6.44666667 15.8341667,6.65583333 Z M2.4975,18.2866667 L14.1525,18.2866667 L14.1525,7.44833333 L9.16666667,7.44833333 C8.70666667,7.44833333 8.325,7.115 8.325,6.65583333 L8.325,1.615 L2.5,1.615 L2.4975,18.2866667 Z M9.99,2.84583333 L9.99,5.825 L12.975,5.825 L9.99,2.84583333 Z" id="Shape"></path>
            </g>
        </g>
    </g>
</svg>