<?xml version="1.0" encoding="UTF-8" standalone="no"?>
<svg width="20px" height="20px" viewBox="0 0 20 20" version="1.1" xmlns="http://www.w3.org/2000/svg" xmlns:xlink="http://www.w3.org/1999/xlink">
    <!-- Generator: Sketch 41.2 (35397) - http://www.bohemiancoding.com/sketch -->
    <title>edit</title>
    <desc>Created with Sketch.</desc>
    <defs></defs>
    <g id="Guide-previews" stroke="none" stroke-width="1" fill="none" fill-rule="evenodd">
        <g id="Icons" transform="translate(-266.000000, -113.000000)" fill="#227FBB">
            <path d="M284.94,117.5025 C284.926667,117.515833 284.909167,117.52 284.895833,117.5325 C284.883333,117.545833 284.879167,117.563333 284.866667,117.576667 L283.6625,118.784167 L283.6625,118.784167 L283.661667,118.785 L271.776667,130.705833 C271.775833,130.706667 271.775,130.7075 271.775,130.7075 L271.771667,130.711667 C271.733333,130.749167 271.685833,130.7675 271.643333,130.796667 C271.596667,130.828333 271.558333,130.8675 271.505,130.89 L271.5,130.891667 L271.499167,130.8925 L267.14,132.705833 C267.038333,132.748333 266.931667,132.768333 266.825833,132.768333 C266.6125,132.768333 266.4025,132.685 266.245833,132.5275 C266.010833,132.291667 265.94,131.9375 266.0675,131.629167 L267.878333,127.250833 C267.885833,127.2325 267.901667,127.220833 267.91,127.203333 C267.949167,127.125 267.9925,127.0475 268.055833,126.984167 L279.9475,115.058333 C279.9475,115.058333 279.9475,115.0575 279.948333,115.056667 C279.949167,115.055833 279.95,115.055833 279.95,115.055 L281.1525,113.849167 C281.165,113.8375 281.180833,113.833333 281.193333,113.8225 C281.205833,113.8075 281.210833,113.789167 281.225,113.775 C282.249167,112.749167 283.915833,112.749167 284.94,113.775 C285.965,114.803333 285.964167,116.475 284.94,117.5025 Z M268.924167,129.02 L268.345,130.421667 L269.741667,129.84 L268.924167,129.02 Z M271.190833,128.964167 L281.920833,118.201667 L280.529167,116.804167 L269.7975,127.566667 L271.190833,128.964167 Z M283.779167,114.94 C283.394167,114.555 282.770833,114.554167 282.385833,114.94 C282.373333,114.9525 282.356667,114.956667 282.344167,114.968333 C282.331667,114.9825 282.3275,115.000833 282.313333,115.014167 L281.69,115.64 L283.0825,117.0375 L283.705833,116.4125 C283.718333,116.399167 283.735833,116.395 283.75,116.3825 C283.761667,116.369167 283.765833,116.351667 283.779167,116.338333 C284.163333,115.953333 284.163333,115.325833 283.779167,114.94 Z" id="edit"></path>
        </g>
    </g>
</svg>