<?xml version="1.0" encoding="UTF-8" standalone="no"?>
<svg width="25px" height="32px" viewBox="0 0 25 32" version="1.1" xmlns="http://www.w3.org/2000/svg" xmlns:xlink="http://www.w3.org/1999/xlink">
    <defs></defs>
    <g id="Style-guide" stroke="none" stroke-width="1" fill="none" fill-rule="evenodd">
        <g id="Icons" transform="translate(-216.000000, -356.000000)" fill-rule="nonzero">
            <g id="Image-32px" transform="translate(216.000000, 356.000000)">
                <polygon id="Shape" fill="#FFFFFF" points="25 32 1.47058824 32 1.47058824 1.45454545 18.7205882 1.45454545 25 7.56363636"></polygon>
                <path d="M4.41176471,26.1818182 L20.5882353,26.1818182 L16.5735294,19.5490909 C16.3053834,19.121139 15.8325552,18.8607748 15.3235294,18.8607748 C14.8145036,18.8607748 14.3416754,19.121139 14.0735294,19.5490909 L11.0294118,24.1745455 L9.33823529,22.08 C9.04151263,21.7103772 8.58191791,21.5061302 8.10546896,21.5321502 C7.62902,21.5581702 7.19495341,21.8112222 6.94117647,22.2109091 L4.41176471,26.1818182 Z" id="Shape" fill="#227FBB"></path>
                <ellipse id="Oval" fill="#227FBB" cx="8.08823529" cy="12.3636364" rx="2.20588235" ry="2.18181818"></ellipse>
                <path d="M24.5588235,6.10909091 L18.6764706,0.421818182 C18.4025579,0.153099398 18.0328528,0.00160672225 17.6470588,0 L1.47058824,0 C0.65840478,0 0,0.651222182 0,1.45454545 L0,30.5454545 C0,31.3487778 0.65840478,32 1.47058824,32 L23.5294118,32 C24.3415952,32 25,31.3487778 25,30.5454545 L25,7.14181818 C24.9983685,6.75309688 24.8394936,6.38119482 24.5588235,6.10909091 L24.5588235,6.10909091 Z M23.5294118,7.14181818 L23.5294118,7.27272727 L17.6470588,7.27272727 L17.6470588,1.45454545 L17.6470588,1.45454545 L23.5294118,7.14181818 Z M1.47058824,30.5454545 L1.47058824,1.45454545 L16.1764706,1.45454545 L16.1764706,8 C16.1764706,8.40166164 16.505673,8.72727273 16.9117647,8.72727273 L23.5294118,8.72727273 L23.5294118,30.5454545 L1.47058824,30.5454545 Z" id="Shape" fill="#A5A5A5"></path>
            </g>
        </g>
    </g>
</svg>