<?xml version="1.0" encoding="UTF-8" standalone="no"?>
<svg width="16px" height="16px" viewBox="0 0 16 16" version="1.1" xmlns="http://www.w3.org/2000/svg" xmlns:xlink="http://www.w3.org/1999/xlink">
    <!-- Generator: Sketch 41.2 (35397) - http://www.bohemiancoding.com/sketch -->
    <title>info</title>
    <desc>Created with Sketch.</desc>
    <defs></defs>
    <g id="Prototype" stroke="none" stroke-width="1" fill="none" fill-rule="evenodd">
        <g id="Edit-user" transform="translate(-457.000000, -1386.000000)" fill="#227FBB">
            <path d="M465,1402 C460.588667,1402 457,1398.41133 457,1394 C457,1389.58867 460.588667,1386 465,1386 C469.411333,1386 473,1389.58867 473,1394 C473,1398.41133 469.411333,1402 465,1402 Z M465,1387.33333 C461.324,1387.33333 458.333333,1390.324 458.333333,1394 C458.333333,1397.676 461.324,1400.66667 465,1400.66667 C468.676,1400.66667 471.666667,1397.676 471.666667,1394 C471.666667,1390.324 468.676,1387.33333 465,1387.33333 Z M466.592667,1394.22933 C465.626,1395.012 465.662667,1395.87667 465.664667,1395.91333 C465.685333,1396.27667 465.410667,1396.59533 465.048,1396.62133 C465.030667,1396.62267 465.014,1396.62333 464.998,1396.62333 C464.656,1396.62333 464.366667,1396.36733 464.336,1396.02133 C464.330667,1395.95733 464.214,1394.43867 465.753333,1393.19267 C466.182,1392.846 466.333333,1392.54333 466.333333,1392.034 C466.333333,1391.25933 465.735333,1390.62867 465,1390.62867 C464.24,1390.62867 463.666667,1391.202 463.666667,1391.962 C463.666667,1392.33067 463.368,1392.62867 463,1392.62867 C462.632,1392.62867 462.333333,1392.33067 462.333333,1391.962 C462.333333,1390.46667 463.504667,1389.29533 465,1389.29533 C466.470667,1389.29533 467.666667,1390.524 467.666667,1392.034 C467.666667,1392.95067 467.335333,1393.62733 466.592667,1394.22933 Z M465.11,1397.324 C465.472667,1397.38667 465.719333,1397.71267 465.656667,1398.07533 L465.650667,1398.11333 C465.594667,1398.43733 465.312667,1398.66667 464.994,1398.66667 C464.956667,1398.66667 464.918667,1398.66333 464.88,1398.65667 C464.517333,1398.59467 464.274,1398.24933 464.336667,1397.88667 C464.399333,1397.52333 464.746667,1397.25933 465.11,1397.324 Z" id="info"></path>
        </g>
    </g>
</svg>