<?xml version="1.0" encoding="UTF-8" standalone="no"?>
<svg width="15px" height="16px" viewBox="0 0 15 16" version="1.1" xmlns="http://www.w3.org/2000/svg" xmlns:xlink="http://www.w3.org/1999/xlink">
    <!-- Generator: Sketch 41.2 (35397) - http://www.bohemiancoding.com/sketch -->
    <title>replace</title>
    <desc>Created with Sketch.</desc>
    <defs></defs>
    <g id="Prototype" stroke="none" stroke-width="1" fill="none" fill-rule="evenodd">
        <g id="Edit-user" transform="translate(-718.000000, -1426.000000)" fill="#227FBB">
            <path d="M729.412,1439.56667 C729.108,1439.77467 728.693333,1439.696 728.485333,1439.39133 C728.278,1439.08733 728.356667,1438.672 728.660667,1438.46467 C730.284667,1437.358 731.333333,1435.34467 731.333333,1433.336 C731.333333,1430.02667 728.642,1427.334 725.333333,1427.334 C722.024667,1427.334 719.333333,1430.02667 719.333333,1433.336 C719.333333,1436.51 721.811333,1439.10933 724.932667,1439.31733 L723.986667,1437.66267 C723.803333,1437.34333 723.914667,1436.936 724.234667,1436.75267 C724.554,1436.57067 724.961333,1436.68133 725.144,1437.00067 L726.578667,1439.50933 C726.667333,1439.664 726.69,1439.84733 726.642667,1440.01867 C726.595333,1440.19 726.480667,1440.33533 726.325333,1440.42267 L723.658667,1441.91467 C723.556,1441.97267 723.444,1442 723.334,1442 C723.1,1442 722.873333,1441.87733 722.751333,1441.65867 C722.571333,1441.33733 722.686,1440.93067 723.008,1440.75133 L723.556,1440.444 C720.37,1439.64667 718,1436.76667 718,1433.336 C718,1429.29067 721.29,1426 725.333333,1426 C729.376667,1426 732.666667,1429.29067 732.666667,1433.336 C732.666667,1435.77267 731.389333,1438.21867 729.412,1439.56667 Z" id="replace"></path>
        </g>
    </g>
</svg>