<?xml version="1.0" encoding="UTF-8" standalone="no"?>
<svg width="17px" height="20px" viewBox="0 0 17 20" version="1.1" xmlns="http://www.w3.org/2000/svg" xmlns:xlink="http://www.w3.org/1999/xlink">
    <!-- Generator: Sketch 41.2 (35397) - http://www.bohemiancoding.com/sketch -->
    <title>notification</title>
    <desc>Created with Sketch.</desc>
    <defs></defs>
    <g id="Guide-previews" stroke="none" stroke-width="1" fill="none" fill-rule="evenodd">
        <g id="Attainia-Template" transform="translate(-1290.000000, -17.000000)" fill="#227FBB">
            <path d="M1306.37096,33.0525 C1306.13096,33.4425 1305.70096,33.6666667 1305.19096,33.6666667 L1301.58846,33.6666667 C1301.58846,35.505 1300.10263,37 1298.27596,37 C1296.45013,37 1294.96513,35.505 1294.96513,33.6666667 L1291.36429,33.6666667 C1290.85429,33.6666667 1290.42429,33.4425 1290.18429,33.0525 C1289.94513,32.6616667 1289.93846,32.1741667 1290.16596,31.715 L1292.48346,27.6133333 L1292.48346,22.8333333 C1292.48346,19.6166667 1295.08263,17 1298.27596,17 C1301.47179,17 1304.07096,19.6166667 1304.07096,22.8333333 L1304.07096,27.6125 L1306.36763,31.6758333 C1306.61679,32.1741667 1306.61013,32.6616667 1306.37096,33.0525 Z M1298.27596,35.3333333 C1299.18929,35.3333333 1299.93263,34.5858333 1299.93263,33.6666667 L1296.62013,33.6666667 C1296.62013,34.5858333 1297.36346,35.3333333 1298.27596,35.3333333 Z M1302.52429,28.2458333 C1302.51596,28.2308333 1302.51679,28.215 1302.50929,28.2 C1302.48429,28.1508333 1302.47179,28.0975 1302.45763,28.0425 C1302.44346,27.9875 1302.42846,27.935 1302.42513,27.88 C1302.42429,27.8633333 1302.41596,27.85 1302.41596,27.8333333 L1302.41596,22.8333333 C1302.41596,20.5358333 1300.55846,18.6666667 1298.27596,18.6666667 C1295.99513,18.6666667 1294.13929,20.5358333 1294.13929,22.8333333 L1294.13929,27.8333333 C1294.13929,27.85 1294.13096,27.8633333 1294.12929,27.88 C1294.12679,27.935 1294.11179,27.9875 1294.09679,28.0425 C1294.08263,28.0975 1294.07013,28.1508333 1294.04513,28.2008333 C1294.03846,28.215 1294.03846,28.2308333 1294.03096,28.2458333 L1291.90929,32 L1304.64679,32 L1302.52429,28.2458333 Z" id="notification"></path>
        </g>
    </g>
</svg>