<?xml version="1.0" encoding="UTF-8" standalone="no"?>
<svg width="20px" height="20px" viewBox="0 0 20 20" version="1.1" xmlns="http://www.w3.org/2000/svg" xmlns:xlink="http://www.w3.org/1999/xlink">
    <!-- Generator: Sketch 41.2 (35397) - http://www.bohemiancoding.com/sketch -->
    <title>print</title>
    <desc>Created with Sketch.</desc>
    <defs></defs>
    <g id="Guide-previews" stroke="none" stroke-width="1" fill="none" fill-rule="evenodd">
        <g id="Icons" transform="translate(-57.000000, -112.000000)" fill="#227FBB">
            <path d="M75.3333333,128.666667 L73.6666667,128.666667 L73.6666667,131.166667 C73.6666667,131.626667 73.2941667,132 72.8333333,132 L61.1666667,132 C60.7058333,132 60.3333333,131.626667 60.3333333,131.166667 L60.3333333,128.666667 L58.6666667,128.666667 C57.7483333,128.666667 57,127.919167 57,127 L57,118.666667 C57,117.7475 57.7483333,117 58.6666667,117 L60.3333333,117 L60.3333333,112.833333 C60.3333333,112.373333 60.7058333,112 61.1666667,112 L72.8333333,112 C73.2941667,112 73.6666667,112.373333 73.6666667,112.833333 L73.6666667,117 L75.3333333,117 C76.2516667,117 77,117.7475 77,118.666667 L77,127 C77,127.919167 76.2516667,128.666667 75.3333333,128.666667 Z M62,130.333333 L72,130.333333 L72,124.5 L62,124.5 L62,130.333333 Z M72,113.666667 L62,113.666667 L62,117 L72,117 L72,113.666667 Z M75.3333333,118.666667 L72.8333333,118.666667 L61.1666667,118.666667 L58.6666667,118.666667 L58.6666667,127 L60.3333333,127 L60.3333333,123.666667 C60.3333333,123.206667 60.7058333,122.833333 61.1666667,122.833333 L72.8333333,122.833333 C73.2941667,122.833333 73.6666667,123.206667 73.6666667,123.666667 L73.6666667,127 L75.3333333,127 L75.3333333,118.666667 Z M72.8333333,121.166667 C72.3725,121.166667 72,120.793333 72,120.333333 C72,119.873333 72.3725,119.5 72.8333333,119.5 L73.6666667,119.5 C74.1275,119.5 74.5,119.873333 74.5,120.333333 C74.5,120.793333 74.1275,121.166667 73.6666667,121.166667 L72.8333333,121.166667 Z" id="print"></path>
        </g>
    </g>
</svg>