<?xml version="1.0" encoding="UTF-8" standalone="no"?>
<svg width="20px" height="20px" viewBox="0 0 20 20" version="1.1" xmlns="http://www.w3.org/2000/svg" xmlns:xlink="http://www.w3.org/1999/xlink">
    <!-- Generator: Sketch 41.2 (35397) - http://www.bohemiancoding.com/sketch -->
    <title>search</title>
    <desc>Created with Sketch.</desc>
    <defs></defs>
    <g id="Guide-previews" stroke="none" stroke-width="1" fill="none" fill-rule="evenodd">
        <g id="Attainia-Template" transform="translate(-1237.000000, -15.000000)" fill="#227FBB">
            <path d="M1256.68167,34.7558333 C1256.51917,34.9183333 1256.30667,35 1256.09417,35 C1255.88167,35 1255.67,34.9183333 1255.5075,34.7558333 L1249.13,28.3541667 C1247.85167,29.3816667 1246.23333,30 1244.47167,30 C1240.35167,30 1237,26.6358333 1237,22.5008333 C1237,18.365 1240.35167,15 1244.47167,15 C1248.59167,15 1251.94333,18.365 1251.94333,22.5008333 C1251.94333,24.2683333 1251.3275,25.8925 1250.30417,27.1758333 L1256.68167,33.5775 C1257.00583,33.9033333 1257.00583,34.43 1256.68167,34.7558333 Z M1244.47167,16.6666667 C1241.26667,16.6666667 1238.66,19.2841667 1238.66,22.5008333 C1238.66,25.7166667 1241.26667,28.3333333 1244.47167,28.3333333 C1247.67583,28.3333333 1250.28333,25.7166667 1250.28333,22.5008333 C1250.28333,19.2841667 1247.67583,16.6666667 1244.47167,16.6666667 Z" id="search"></path>
        </g>
    </g>
</svg>