<?xml version="1.0" encoding="UTF-8" standalone="no"?>
<svg width="8px" height="12px" viewBox="0 0 8 12" version="1.1" xmlns="http://www.w3.org/2000/svg" xmlns:xlink="http://www.w3.org/1999/xlink">
    <!-- Generator: Sketch 41.2 (35397) - http://www.bohemiancoding.com/sketch -->
    <title>sort asc</title>
    <desc>Created with Sketch.</desc>
    <defs></defs>
    <g id="Guide-previews" stroke="none" stroke-width="1" fill="none" fill-rule="evenodd">
        <g id="Icons" transform="translate(-198.000000, -117.000000)" fill="#227FBB">
            <path d="M206.9995,123.9995 L199.4135,123.9995 L200.7065,125.2925 C201.0975,125.6835 201.0975,126.3155 200.7065,126.7065 C200.5115,126.9015 200.2555,126.9995 199.9995,126.9995 C199.7435,126.9995 199.4875,126.9015 199.2925,126.7065 L196.2925,123.7065 C196.2005,123.6145 196.1275,123.5045 196.0765,123.3815 C195.9755,123.1375 195.9755,122.8615 196.0765,122.6175 C196.1275,122.4945 196.2005,122.3845 196.2925,122.2925 L199.2925,119.2925 C199.6835,118.9015 200.3155,118.9015 200.7065,119.2925 C201.0975,119.6835 201.0975,120.3155 200.7065,120.7065 L199.4135,121.9995 L206.9995,121.9995 C207.5515,121.9995 207.9995,122.4475 207.9995,122.9995 C207.9995,123.5515 207.5515,123.9995 206.9995,123.9995 Z" id="sort-asc" transform="translate(202.000125, 122.999375) rotate(-270.000000) translate(-202.000125, -122.999375) "></path>
        </g>
    </g>
</svg>