<?xml version="1.0" encoding="UTF-8" standalone="no"?>
<svg width="8px" height="12px" viewBox="0 0 8 12" version="1.1" xmlns="http://www.w3.org/2000/svg" xmlns:xlink="http://www.w3.org/1999/xlink">
    <!-- Generator: Sketch 41.2 (35397) - http://www.bohemiancoding.com/sketch -->
    <title>sort desc</title>
    <desc>Created with Sketch.</desc>
    <defs></defs>
    <g id="Guide-previews" stroke="none" stroke-width="1" fill="none" fill-rule="evenodd">
        <g id="Icons" transform="translate(-170.000000, -117.000000)" fill="#227FBB">
            <path d="M178.9995,123.9995 L171.4135,123.9995 L172.7065,125.2925 C173.0975,125.6835 173.0975,126.3155 172.7065,126.7065 C172.5115,126.9015 172.2555,126.9995 171.9995,126.9995 C171.7435,126.9995 171.4875,126.9015 171.2925,126.7065 L168.2925,123.7065 C168.2005,123.6145 168.1275,123.5045 168.0765,123.3815 C167.9755,123.1375 167.9755,122.8615 168.0765,122.6175 C168.1275,122.4945 168.2005,122.3845 168.2925,122.2925 L171.2925,119.2925 C171.6835,118.9015 172.3155,118.9015 172.7065,119.2925 C173.0975,119.6835 173.0975,120.3155 172.7065,120.7065 L171.4135,121.9995 L178.9995,121.9995 C179.5515,121.9995 179.9995,122.4475 179.9995,122.9995 C179.9995,123.5515 179.5515,123.9995 178.9995,123.9995 Z" id="sort-desc" transform="translate(174.000125, 122.999375) rotate(-90.000000) translate(-174.000125, -122.999375) "></path>
        </g>
    </g>
</svg>